<svg xmlns="http://www.w3.org/2000/svg" xmlns:xlink="http://www.w3.org/1999/xlink" viewBox="0 0 109.455 28" overflow="visible"><g><path d="M 0 0 L 109.455 0 L 109.455 28 L 0 28 Z" fill="transparent"></path><path d="M 0 0.646 L 0 13.307 C 0 18.761 4.364 23.53 9.705 23.688 C 15.459 23.856 20.159 19.061 19.992 13.188 C 19.84 7.737 15.167 3.282 9.822 3.282 L 9.104 3.282 C 8.905 3.285 8.719 3.38 8.599 3.54 C 8.48 3.699 8.441 3.904 8.494 4.096 L 9.644 8.461 C 9.644 8.461 9.65 8.469 9.654 8.469 L 9.891 8.469 C 12.457 8.469 14.661 10.465 14.829 13.079 C 15.02 16.069 12.602 18.537 9.672 18.341 C 7.112 18.171 5.156 15.921 5.156 13.299 L 5.156 1.847 C 5.158 1.566 4.976 1.315 4.708 1.229 L 0.815 0.028 C 0.621 -0.029 0.412 0.009 0.251 0.131 C 0.09 0.253 -0.003 0.444 0 0.646 Z M 70.514 27.353 C 70.514 27.785 70.944 28.096 71.371 27.971 L 75.47 26.771 C 75.747 26.693 75.94 26.441 75.942 26.152 L 75.942 14.702 C 75.942 12.079 78 9.829 80.695 9.659 C 83.779 9.463 86.325 11.933 86.123 14.923 C 85.947 17.537 83.626 19.533 80.926 19.533 L 80.677 19.533 C 80.672 19.533 80.667 19.541 80.667 19.541 L 79.455 23.907 C 79.404 24.104 79.448 24.314 79.574 24.474 C 79.7 24.634 79.893 24.725 80.097 24.721 L 80.853 24.721 C 86.479 24.721 91.399 20.266 91.559 14.814 C 91.734 8.939 86.786 4.143 80.729 4.311 C 75.108 4.469 70.514 9.239 70.514 14.694 Z" fill="currentColor"></path><path d="M 25.786 5.784 C 25.066 5.784 24.449 5.5 23.93 4.931 C 23.412 4.364 23.154 3.671 23.154 2.856 C 23.154 2.041 23.412 1.392 23.93 0.836 C 24.45 0.277 25.066 0 25.786 0 C 26.506 0 27.152 0.278 27.658 0.835 C 28.165 1.392 28.416 2.065 28.416 2.855 C 28.416 3.647 28.163 4.364 27.658 4.931 C 27.152 5.501 26.528 5.784 25.786 5.784 Z M 23.492 23.308 L 23.492 8.756 C 23.492 8.544 23.689 8.372 23.93 8.372 L 27.642 8.372 C 27.902 8.372 28.112 8.555 28.112 8.782 L 28.112 23.282 C 28.112 23.509 27.9 23.692 27.642 23.692 L 23.93 23.692 C 23.686 23.692 23.492 23.52 23.492 23.308 Z M 31.573 23.233 L 31.573 1.063 C 31.573 0.839 31.763 0.648 32.02 0.612 L 36.21 0.006 C 36.536 -0.04 36.836 0.174 36.836 0.457 L 36.836 23.233 C 36.836 23.486 36.596 23.693 36.301 23.693 L 32.111 23.693 C 31.814 23.693 31.576 23.486 31.576 23.233 M 41.045 23.233 L 41.045 1.063 C 41.045 0.839 41.235 0.648 41.492 0.612 L 45.682 0.006 C 46.009 -0.04 46.308 0.174 46.308 0.457 L 46.308 23.233 C 46.308 23.486 46.068 23.693 45.774 23.693 L 41.583 23.693 C 41.286 23.693 41.048 23.486 41.048 23.233 M 56.967 23.692 C 55.503 23.692 54.205 23.37 53.07 22.725 C 51.948 22.093 51.028 21.157 50.417 20.023 C 49.783 18.868 49.465 17.56 49.465 16.1 L 49.465 4.815 C 49.465 4.534 49.695 4.308 49.975 4.308 L 53.93 4.308 C 54.213 4.308 54.44 4.536 54.44 4.815 L 54.44 15.37 C 54.44 16.611 54.798 17.591 55.519 18.308 C 56.239 19.026 57.209 19.384 58.429 19.384 C 59.259 19.384 60.007 19.214 60.679 18.874 C 61.281 18.574 61.811 18.147 62.234 17.624 C 62.306 17.536 62.344 17.424 62.344 17.309 L 62.344 4.815 C 62.344 4.534 62.573 4.308 62.853 4.308 L 66.847 4.308 C 67.13 4.308 67.357 4.536 67.357 4.815 L 67.357 22.82 C 67.356 23.101 67.128 23.328 66.847 23.328 L 62.853 23.328 C 62.718 23.329 62.589 23.275 62.493 23.18 C 62.398 23.085 62.344 22.955 62.344 22.82 C 62.344 22.633 62.24 22.46 62.075 22.372 C 61.909 22.283 61.708 22.292 61.552 22.396 C 60.249 23.259 58.719 23.693 56.965 23.693 M 101.096 23.692 C 99.392 23.692 97.792 23.47 96.296 23.028 C 94.988 22.641 93.836 22.114 92.835 21.445 C 92.722 21.37 92.644 21.251 92.621 21.116 C 92.599 20.982 92.633 20.844 92.715 20.735 L 94.607 18.221 C 94.768 18.01 95.063 17.956 95.288 18.096 C 96.24 18.687 97.162 19.142 98.048 19.456 C 99.059 19.816 100.063 19.996 101.061 19.996 C 102.181 19.996 103.075 19.811 103.745 19.439 C 104.413 19.069 104.748 18.583 104.748 17.986 C 104.748 17.506 104.56 17.124 104.182 16.837 C 103.803 16.55 103.202 16.347 102.374 16.227 L 98.722 15.688 C 96.847 15.401 95.418 14.796 94.432 13.875 C 93.447 12.954 92.954 11.74 92.954 10.231 C 92.954 9.011 93.277 7.959 93.922 7.072 C 94.567 6.188 95.486 5.504 96.677 5.027 C 97.868 4.547 99.257 4.307 100.84 4.307 C 102.252 4.307 103.621 4.5 104.946 4.882 C 106.102 5.217 107.197 5.704 108.23 6.345 C 108.482 6.5 108.542 6.835 108.367 7.067 L 106.554 9.47 C 106.396 9.676 106.11 9.732 105.886 9.602 C 104.979 9.075 104.106 8.688 103.265 8.436 C 102.336 8.153 101.37 8.008 100.398 8.004 C 99.448 8.004 98.772 8.171 98.226 8.506 C 97.678 8.84 97.406 9.285 97.406 9.834 C 97.406 10.336 97.602 10.731 97.99 11.018 C 98.379 11.305 99.037 11.52 99.961 11.665 L 103.613 12.167 C 105.513 12.432 106.96 13.028 107.958 13.963 C 108.957 14.896 109.454 16.08 109.454 17.516 C 109.454 18.713 109.089 19.771 108.36 20.693 C 107.628 21.614 106.638 22.343 105.383 22.883 C 104.129 23.423 102.699 23.69 101.094 23.69" fill="currentColor"></path></g></svg>