<svg xmlns="http://www.w3.org/2000/svg" xmlns:xlink="http://www.w3.org/1999/xlink" viewBox="0 0 100.039 40" overflow="visible"><g><path d="M 100.039 5.386 L 100.039 34.719 C 100.039 39.373 99.986 39.582 99.412 39.582 L 92.308 39.582 C 91.734 39.582 91.629 39.373 91.629 34.719 L 91.629 5.386 C 91.629 0.733 91.734 0.523 92.308 0.523 L 99.412 0.523 C 99.986 0.523 100.039 0.733 100.039 5.386 Z M 80.122 22.536 L 80.122 21.438 C 80.122 18.824 78.921 17.778 76.831 17.778 C 74.794 17.778 73.697 18.876 73.384 20.811 C 73.28 21.386 73.332 21.856 73.018 21.856 L 65.967 21.856 C 65.549 21.856 65.549 21.752 65.549 21.386 C 65.549 18.614 68.161 12.863 77.249 12.863 C 83.674 12.863 88.27 15.425 88.27 22.536 L 88.27 32.994 C 88.27 35.399 89.576 38.797 89.576 39.268 C 89.576 39.477 89.419 39.582 89.263 39.582 L 81.428 39.582 C 81.062 39.582 81.01 39.372 80.749 38.065 L 80.54 37.072 C 80.383 36.288 80.279 36.026 79.965 36.026 C 79.547 36.026 79.286 36.967 78.137 38.065 C 76.883 39.216 75.369 40 72.757 40 C 68.526 40 64.713 37.595 64.713 32.366 C 64.713 26.51 69.258 24 75.996 23.739 C 79.495 23.582 80.122 23.948 80.122 22.536 Z M 80.122 30.118 L 80.122 29.072 C 80.122 28.026 79.861 27.712 78.973 27.765 L 77.04 27.869 C 74.585 28.026 73.123 29.281 73.123 31.634 C 73.123 33.935 74.376 35.085 76.205 35.085 C 78.242 35.085 80.122 33.203 80.122 30.118 Z M 50.497 19.712 C 50.497 18.719 50.08 18.614 48.147 18.614 L 47.207 18.614 C 46.841 18.614 46.789 18.353 46.789 16.209 L 46.789 15.843 C 46.789 13.699 46.841 13.49 47.207 13.49 L 48.304 13.49 C 50.236 13.49 50.497 13.333 50.497 12.392 L 50.497 9.15 C 50.497 3.033 53.579 0 59.534 0 C 61.884 0 63.503 0.366 63.764 0.523 C 63.869 0.628 63.869 0.784 63.869 2.719 L 63.869 3.399 C 63.869 5.386 63.869 5.856 63.712 5.856 C 63.556 5.856 62.824 5.386 61.571 5.386 C 59.899 5.386 58.855 6.222 58.855 9.15 L 58.855 12.392 C 58.855 13.333 59.22 13.49 61.571 13.49 L 63.921 13.49 C 64.391 13.49 64.391 13.699 64.391 15.843 L 64.391 16.209 C 64.391 18.353 64.339 18.614 63.973 18.614 L 61.571 18.614 C 59.22 18.614 58.855 18.719 58.855 19.712 L 58.855 34.719 C 58.855 39.372 58.698 39.582 58.28 39.582 L 51.02 39.582 C 50.602 39.582 50.497 39.372 50.497 34.719 Z" fill="currentColor"></path><path d="M 25.131 0.573 C 25.806 0.573 26.347 1.122 26.412 1.794 C 26.988 7.789 31.758 12.559 37.753 13.135 C 38.425 13.199 38.974 13.74 38.974 14.416 L 38.974 25.703 C 38.974 26.378 38.425 26.919 37.753 26.984 C 31.758 27.559 26.988 32.33 26.412 38.324 C 26.347 38.996 25.806 39.545 25.131 39.545 L 13.843 39.545 C 13.168 39.545 12.627 38.996 12.562 38.324 C 11.987 32.33 7.216 27.559 1.221 26.984 C 0.549 26.919 0 26.378 0 25.703 L 0 14.416 C 0 13.74 0.549 13.199 1.221 13.135 C 7.216 12.559 11.987 7.789 12.562 1.794 C 12.627 1.122 13.168 0.573 13.843 0.573 Z M 7.825 20.026 C 7.825 26.511 13.076 31.767 19.554 31.767 C 26.031 31.767 31.282 26.511 31.282 20.026 C 31.282 13.542 26.031 8.286 19.554 8.286 C 13.076 8.286 7.825 13.542 7.825 20.026 Z" fill="currentColor"></path></g></svg>