<svg xmlns="http://www.w3.org/2000/svg" xmlns:xlink="http://www.w3.org/1999/xlink" viewBox="0 0 184.261 26.001" overflow="visible"><path d="M 0.327 25.62 C 0.147 25.44 0 20.084 0 13.716 C 0 4.494 0.142 1.946 0.697 1.188 C 1.347 0.3 2.063 0.238 11.623 0.238 L 21.853 0.238 L 21.853 4.155 L 13.36 4.289 L 4.866 4.423 L 5.011 7.717 L 5.156 11.011 L 9.91 10.842 C 12.525 10.749 15.342 10.822 16.171 11.003 C 17.541 11.303 17.679 11.509 17.679 13.253 L 17.679 15.173 L 12.066 15.173 C 4.886 15.173 4.911 15.151 4.911 21.329 L 4.911 25.946 L 2.783 25.946 C 1.613 25.946 0.507 25.799 0.327 25.62 Z M 30.447 13.764 C 30.447 0.293 30.392 0.527 33.623 0.227 L 35.357 0.067 L 35.357 25.947 L 30.447 25.947 L 30.447 13.763 Z M 45.89 25.325 C 45.759 24.984 45.71 19.199 45.783 12.471 L 45.915 0.238 L 55 0.238 C 63.612 0.238 64.18 0.296 65.892 1.358 C 66.952 2.016 68.119 3.344 68.716 4.573 C 70.526 8.303 69.924 11.305 66.784 14.196 L 64.868 15.959 L 67.531 20.586 C 68.996 23.13 70.201 25.377 70.209 25.579 C 70.216 25.781 69.153 25.946 67.844 25.946 C 65.118 25.946 64.782 25.661 62.368 21.294 C 59.612 16.308 59.378 16.153 54.669 16.153 L 50.581 16.153 L 50.581 25.946 L 48.355 25.946 C 47.011 25.946 46.035 25.7 45.891 25.326 Z M 63.313 11.52 C 65.749 10.264 66.119 7.063 64.019 5.416 C 62.869 4.514 62.052 4.401 56.653 4.401 L 50.58 4.401 L 50.58 12.236 L 56.251 12.236 C 60.269 12.236 62.328 12.027 63.312 11.52 Z M 78.572 13.765 C 78.572 3.036 78.669 1.503 79.383 0.911 C 80 0.4 82.542 0.21 89.941 0.119 L 99.688 0 L 99.688 4.4 L 83.438 4.4 L 83.583 7.706 L 83.728 11.011 L 88.721 10.843 C 95.244 10.623 95.759 10.799 95.759 13.248 L 95.759 15.173 L 90.571 15.173 C 83.934 15.173 83.483 15.408 83.483 18.863 L 83.483 21.539 L 99.688 21.539 L 99.688 25.946 L 78.572 25.946 L 78.572 13.764 Z M 109.018 13.505 C 109.018 1.565 109.062 0.985 109.988 0.491 C 110.601 0.164 114.529 0.022 120.669 0.106 L 130.38 0.239 L 130.531 2.309 L 130.681 4.378 L 122.183 4.512 L 113.684 4.646 L 113.631 7.34 C 113.602 8.82 113.659 10.253 113.758 10.522 C 113.865 10.815 115.66 10.947 118.218 10.851 C 120.572 10.761 123.456 10.832 124.626 11.007 C 126.728 11.321 126.751 11.347 126.602 13.127 L 126.452 14.93 L 120.834 15.069 C 117.745 15.146 114.935 15.442 114.59 15.727 C 114.182 16.065 113.915 17.889 113.824 20.974 L 113.684 25.703 L 111.351 25.852 L 109.019 26.001 L 109.018 13.504 Z M 139.737 25.169 C 139.059 24.493 138.974 22.814 139.088 12.333 L 139.22 0.275 L 141.429 0.256 L 143.639 0.238 L 143.772 10.888 L 143.904 21.538 L 159.599 21.538 L 159.599 25.946 L 150.058 25.946 C 141.995 25.946 140.397 25.826 139.737 25.168 Z M 168.93 20.91 L 168.93 15.873 L 163.305 8.178 C 160.211 3.946 157.725 0.456 157.78 0.422 C 157.835 0.388 159.155 0.304 160.714 0.234 L 163.547 0.108 L 167.306 5.315 C 169.374 8.179 171.207 10.691 171.379 10.896 C 171.552 11.102 173.493 8.76 175.693 5.692 L 179.694 0.115 L 181.801 0.128 C 182.959 0.135 184.061 0.223 184.25 0.325 C 184.438 0.427 182.173 3.86 179.216 7.954 L 173.84 15.397 L 173.84 19.903 C 173.84 25.045 173.358 25.948 170.613 25.948 L 168.93 25.948 Z" fill="currentColor"></path></svg>