<svg xmlns="http://www.w3.org/2000/svg" xmlns:xlink="http://www.w3.org/1999/xlink" viewBox="0 0 236.841 32" overflow="visible"><g><path d="M 0 0 L 236.841 0 L 236.841 32 L 0 32 Z" fill="transparent"></path><path d="M 49.613 14.188 L 37.713 14.188 L 37.713 24.926 L 34.19 24.926 L 34.19 0.988 L 37.712 0.988 L 37.712 11.042 L 49.612 11.042 L 49.612 0.988 L 53.169 0.988 L 53.169 24.926 L 49.612 24.926 L 49.612 14.188 Z M 61.206 24.054 C 59.881 23.311 58.786 22.216 58.043 20.891 C 57.279 19.546 56.897 18.018 56.897 16.309 C 56.897 14.599 57.279 13.072 58.043 11.726 C 58.787 10.401 59.881 9.307 61.206 8.563 C 62.551 7.799 64.079 7.417 65.788 7.417 C 67.498 7.417 69.025 7.799 70.371 8.563 C 71.693 9.304 72.783 10.4 73.517 11.726 C 74.269 13.071 74.645 14.599 74.645 16.309 C 74.645 18.019 74.269 19.546 73.517 20.891 C 72.783 22.218 71.694 23.313 70.371 24.054 C 69.025 24.818 67.498 25.2 65.789 25.2 C 64.079 25.2 62.551 24.818 61.206 24.054 Z M 69.738 20.617 C 70.753 19.5 71.26 18.064 71.26 16.308 C 71.26 14.553 70.753 13.118 69.738 12 C 68.724 10.883 67.408 10.324 65.788 10.324 C 64.148 10.324 62.818 10.883 61.805 12 C 60.79 13.117 60.283 14.553 60.283 16.308 C 60.283 18.064 60.79 19.5 61.805 20.618 C 62.819 21.735 64.147 22.293 65.789 22.293 C 67.407 22.293 68.724 21.735 69.739 20.617 Z M 81.194 23.986 C 79.929 23.202 78.905 22.083 78.236 20.754 C 77.552 19.409 77.21 17.927 77.21 16.309 C 77.21 14.689 77.552 13.209 78.236 11.863 C 78.905 10.534 79.929 9.415 81.194 8.631 C 82.481 7.822 83.992 7.417 85.724 7.417 C 87.07 7.417 88.324 7.674 89.487 8.187 C 90.65 8.7 91.607 9.429 92.359 10.375 C 93.112 11.322 93.568 12.433 93.727 13.709 L 90.41 13.709 C 90.25 12.729 89.737 11.919 88.871 11.281 C 88.004 10.643 86.979 10.324 85.794 10.324 C 84.152 10.324 82.887 10.888 81.998 12.017 C 81.108 13.145 80.664 14.576 80.664 16.308 C 80.664 18.041 81.114 19.471 82.014 20.6 C 82.915 21.729 84.186 22.293 85.828 22.293 C 86.99 22.293 87.982 22.008 88.803 21.438 C 89.612 20.885 90.194 20.059 90.444 19.112 L 93.727 19.112 C 93.454 20.937 92.599 22.407 91.162 23.524 C 89.726 24.641 87.914 25.199 85.725 25.199 C 83.992 25.199 82.482 24.795 81.194 23.986 Z M 97.352 0.476 L 100.669 0.476 L 100.669 14.598 L 108.192 7.691 L 112.501 7.691 L 105.251 14.428 L 113.151 24.926 L 109.047 24.926 L 102.892 16.65 L 100.669 18.702 L 100.669 24.926 L 97.352 24.926 Z M 117.323 23.969 C 116.041 23.167 115 22.032 114.313 20.685 C 113.607 19.318 113.253 17.825 113.253 16.205 C 113.253 14.587 113.583 13.111 114.245 11.777 C 114.884 10.468 115.88 9.365 117.118 8.597 C 118.371 7.81 119.853 7.417 121.563 7.417 C 123.273 7.417 124.738 7.788 125.957 8.528 C 127.148 9.238 128.114 10.269 128.744 11.504 C 129.382 12.746 129.702 14.108 129.702 15.59 C 129.702 16.069 129.679 16.514 129.633 16.924 L 116.502 16.924 C 116.639 18.543 117.197 19.854 118.177 20.856 C 119.157 21.86 120.388 22.361 121.871 22.361 C 123.124 22.361 124.15 22.099 124.948 21.575 C 125.746 21.051 126.27 20.298 126.521 19.318 L 129.838 19.318 C 129.542 21.096 128.676 22.521 127.24 23.592 C 125.803 24.664 124.013 25.2 121.871 25.2 C 120.138 25.2 118.622 24.79 117.322 23.969 Z M 126.351 14.359 C 126.237 13.037 125.763 11.994 124.932 11.23 C 124.099 10.467 122.977 10.085 121.563 10.085 C 120.218 10.085 119.118 10.449 118.263 11.179 C 117.408 11.909 116.855 12.969 116.605 14.359 Z M 137.602 25.199 L 131.344 7.691 L 134.729 7.691 L 139.209 20.891 L 143.655 7.691 L 147.074 7.691 L 138.422 31.902 L 135.174 31.902 L 137.602 25.2 Z M 151.332 22.994 C 149.724 21.524 148.852 19.523 148.716 16.992 L 152.17 16.992 C 152.306 18.588 152.853 19.831 153.811 20.72 C 154.768 21.609 156.136 22.054 157.914 22.054 C 159.488 22.054 160.736 21.74 161.659 21.114 C 162.583 20.486 163.044 19.546 163.044 18.292 C 163.044 17.449 162.793 16.77 162.292 16.257 C 161.79 15.744 161.157 15.345 160.394 15.06 C 159.63 14.776 158.587 14.474 157.265 14.154 C 155.577 13.744 154.221 13.328 153.195 12.906 C 152.17 12.484 151.286 11.818 150.545 10.906 C 149.804 9.994 149.434 8.774 149.434 7.246 C 149.434 5.97 149.781 4.836 150.477 3.844 C 151.172 2.852 152.141 2.083 153.384 1.535 C 154.626 0.988 156.045 0.715 157.641 0.715 C 159.26 0.715 160.696 1.011 161.95 1.604 C 163.203 2.197 164.201 3.04 164.942 4.134 C 165.683 5.229 166.099 6.494 166.19 7.93 L 162.736 7.93 C 162.622 6.699 162.109 5.713 161.197 4.972 C 160.285 4.232 159.1 3.861 157.641 3.861 C 156.204 3.861 155.076 4.163 154.255 4.767 C 153.434 5.371 153.024 6.187 153.024 7.212 C 153.024 8.056 153.275 8.728 153.777 9.23 C 154.277 9.731 154.905 10.113 155.657 10.375 C 156.409 10.638 157.435 10.917 158.735 11.213 C 160.422 11.601 161.79 12.006 162.839 12.427 C 163.887 12.849 164.788 13.521 165.54 14.444 C 166.292 15.368 166.669 16.639 166.669 18.257 C 166.669 19.694 166.298 20.937 165.557 21.985 C 164.817 23.034 163.785 23.832 162.463 24.379 C 161.14 24.926 159.624 25.199 157.914 25.199 C 155.133 25.199 152.939 24.464 151.331 22.994 Z M 173.32 23.421 C 172.283 22.418 171.764 21.039 171.764 19.284 L 171.764 10.564 L 168.242 10.564 L 168.242 7.69 L 171.764 7.69 L 171.764 2.288 L 175.081 2.288 L 175.081 7.69 L 180.177 7.69 L 180.177 10.562 L 175.081 10.562 L 175.081 19.18 C 175.081 20.092 175.321 20.799 175.8 21.3 C 176.278 21.802 176.928 22.053 177.749 22.053 L 180.177 22.053 L 180.177 24.925 L 177.509 24.925 C 175.754 24.925 174.357 24.424 173.32 23.421 Z M 184.263 23.763 C 183.18 22.806 182.639 21.553 182.639 20.001 C 182.639 18.337 183.249 17.004 184.468 16.001 C 185.687 14.998 187.312 14.496 189.341 14.496 L 192.966 14.496 C 193.741 14.496 194.129 14.2 194.129 13.606 C 194.129 12.558 193.758 11.709 193.017 11.059 C 192.276 10.409 191.256 10.085 189.957 10.085 C 188.771 10.085 187.779 10.404 186.982 11.042 C 186.184 11.68 185.762 12.444 185.717 13.333 L 182.639 13.333 C 182.722 12.238 183.113 11.188 183.767 10.306 C 184.428 9.406 185.306 8.699 186.4 8.186 C 187.495 7.673 188.714 7.417 190.06 7.417 C 191.518 7.417 192.807 7.685 193.924 8.221 C 195.04 8.757 195.901 9.503 196.506 10.461 C 197.109 11.418 197.412 12.535 197.412 13.812 L 197.412 24.926 L 194.129 24.926 L 194.129 22.088 C 193.696 23.045 192.977 23.803 191.975 24.361 C 190.971 24.921 189.82 25.199 188.521 25.199 C 186.765 25.199 185.346 24.721 184.263 23.763 Z M 192.812 21.164 C 193.69 20.23 194.129 18.964 194.129 17.368 L 194.129 17.061 L 189.683 17.061 C 188.543 17.061 187.637 17.317 186.965 17.831 C 186.292 18.343 185.956 19.044 185.956 19.933 C 185.956 20.732 186.247 21.369 186.828 21.848 C 187.409 22.327 188.19 22.566 189.17 22.566 C 190.72 22.566 191.934 22.099 192.812 21.164 Z M 204.884 23.986 C 203.619 23.202 202.595 22.083 201.925 20.754 C 201.242 19.409 200.9 17.927 200.9 16.309 C 200.9 14.689 201.242 13.209 201.925 11.863 C 202.595 10.534 203.619 9.415 204.884 8.631 C 206.172 7.822 207.682 7.417 209.415 7.417 C 210.76 7.417 212.013 7.674 213.177 8.187 C 214.339 8.7 215.297 9.429 216.049 10.375 C 216.801 11.322 217.258 12.433 217.417 13.709 L 214.1 13.709 C 213.939 12.729 213.428 11.919 212.562 11.281 C 211.695 10.643 210.668 10.324 209.484 10.324 C 207.841 10.324 206.577 10.888 205.687 12.017 C 204.798 13.145 204.354 14.576 204.354 16.308 C 204.354 18.041 204.804 19.471 205.705 20.6 C 206.606 21.729 207.876 22.293 209.518 22.293 C 210.68 22.293 211.673 22.008 212.492 21.438 C 213.314 20.868 213.86 20.093 214.135 19.112 L 217.417 19.112 C 217.143 20.937 216.289 22.407 214.852 23.524 C 213.416 24.641 211.604 25.199 209.415 25.199 C 207.682 25.199 206.172 24.795 204.884 23.986 Z M 221.043 0.476 L 224.359 0.476 L 224.359 14.598 L 231.882 7.691 L 236.191 7.691 L 228.941 14.428 L 236.841 24.926 L 232.738 24.926 L 226.582 16.65 L 224.359 18.702 L 224.359 24.926 L 221.04 24.926 Z" fill="currentColor"></path><g transform="translate(0 0.815)"><path d="M 20.546 0 C 19.763 0 19.046 0.448 18.696 1.157 L 9.67 19.413 L 0.127 19.413 C 0.063 19.414 0.009 19.462 0.001 19.525 C -0.001 19.545 0.001 19.566 0.008 19.585 L 1.088 22.49 C 1.386 23.303 2.159 23.845 3.026 23.847 L 8.76 23.847 Z M 21.831 0 L 10.04 23.847 C 10.825 23.847 11.541 23.399 11.892 22.69 L 23.018 0.186 C 23.038 0.146 23.036 0.099 23.013 0.061 C 22.99 0.023 22.948 0 22.904 0 L 21.83 0 Z" fill="currentColor"></path></g></g></svg>