<svg xmlns="http://www.w3.org/2000/svg" viewBox="0 0 398.8 73.8" fill="currentColor"><g><path d="M396.5,57.2H2.2v16.6h394.4V57.2z"></path><path d="M0,40.5l13.9-2.6c0.3,7.1,2.5,10.6,7.2,10.6c4.1,0,6-1.9,6-7.4V0h14.5v37.6c0,14.7-6.1,20.8-20.8,20.8
		C5.6,58.3,1.1,49.4,0,40.5z"></path><path d="M50.5,43.2V15.7h14.1v27.8c0,4,1.9,5.6,5,5.6c4.1,0,6.6-2.5,6.6-8.3V15.7h14.1v41.6H76.8V46h-0.4
		c-2.1,9.7-6.6,12.2-12.9,12.2C54.8,58.2,50.5,53.6,50.5,43.2z"></path><path d="M97.5,48.4l7.6-5.1c2.5,4.7,6.5,6.5,11.7,6.5c3.9,0,5.6-1.1,5.6-3.3c0-2.5-1.7-3.8-6.3-4.7l-5.8-1.1
		c-7.8-1.4-12.1-6-12.1-12.4c0-8.6,6.9-13.5,17.5-13.5c10.5,0,15.4,4.3,18,9.1l-7.4,4.8c-1.9-4.3-5.7-5.7-9.2-5.7
		c-3.7,0-5.6,1.3-5.6,3.5c0,2.1,1.6,3.3,5.6,4l5.9,1.1c8.7,1.6,13,5.1,13,12.9c0,7.3-4.7,13.9-18.4,13.9
		C107.4,58.2,100.6,54.3,97.5,48.4z"></path><path d="M144.3,46V24h-5.6v-8.3h5.6V4.8h14.1v10.9h6.8V24h-6.8v20.8c0,2.7,1.1,3.8,3.2,3.8h3.7v8.7H156
		C147.2,57.2,144.3,54.4,144.3,46z"></path><path d="M169.7,15.7H185l5.7,26.2h0.4l7.3-26.2h11.7l7,26.2h0.4l6.3-26.2h11.1L222,57.2h-12.1l-7.4-26.1h-0.4l-7,26.1H183
		L169.7,15.7z"></path><path d="M236.2,36.4c0-13.3,8.7-21.8,21.6-21.8c13,0,21.6,8.5,21.6,21.8c0,13.3-8.7,21.8-21.6,21.8
		C244.8,58.2,236.2,49.7,236.2,36.4z M264.6,36.4c0-10.7-2.3-13.5-6.8-13.5c-4.5,0-6.8,2.8-6.8,13.5c0,10.7,2.3,13.5,6.8,13.5
		C262.3,50,264.6,47.1,264.6,36.4z"></path><path d="M285.7,15.7h13.3v13.8h0.4c2-11.4,5.8-14.1,12-14.1h0.7v12.4h-6.8c-4.1,0-5.4,1.3-5.4,6.2v23.1h-14.1V15.7z"></path><path d="M335.5,40.6l-4,4.5v12.1h-14V0.1h14v33.4l14.4-17.9h12.6l-13.7,15l14.6,26.6h-15L335.5,40.6z"></path><path d="M360.3,48.4l7.7-5.1c2.5,4.7,6.5,6.5,11.7,6.5c3.9,0,5.6-1.1,5.6-3.3c0-2.5-1.7-3.8-6.3-4.7l-5.8-1.1
		c-7.8-1.4-12.1-6-12.1-12.4c0-8.6,6.9-13.5,17.5-13.5c10.5,0,15.4,4.3,18,9.1l-7.4,4.8c-1.9-4.3-5.7-5.7-9.2-5.7
		c-3.6,0-5.6,1.3-5.6,3.5c0,2.1,1.6,3.3,5.6,4l5.9,1.1c8.7,1.6,13,5.1,13,12.9c0,7.3-4.7,13.9-18.4,13.9
		C370.3,58.2,363.4,54.3,360.3,48.4z"></path></g></svg>
