<svg xmlns="http://www.w3.org/2000/svg" xmlns:xlink="http://www.w3.org/1999/xlink" viewBox="0 0 143.019 27" overflow="visible"><path d="M 0 26.611 C 0 26.303 0.13 26.222 0.631 26.221 C 2.071 26.215 2.705 25.711 1.408 25.603 C 0.829 25.556 0.68 25.463 0.68 25.155 C 0.68 24.846 0.83 24.754 1.408 24.705 L 2.137 24.645 L 2.137 14.248 C 2.137 3.924 2.134 3.848 1.738 3.745 C 1.466 3.674 1.358 3.51 1.398 3.229 C 1.456 2.826 1.534 2.817 5.245 2.817 C 8.955 2.817 9.034 2.826 9.091 3.229 C 9.131 3.51 9.023 3.674 8.751 3.745 C 8.355 3.849 8.353 3.925 8.353 14.26 L 8.353 24.67 L 18.648 24.67 L 18.648 14.26 C 18.648 3.924 18.645 3.849 18.248 3.745 C 17.977 3.674 17.868 3.51 17.908 3.229 C 17.966 2.826 18.044 2.817 21.753 2.817 C 25.259 2.817 25.543 2.844 25.606 3.171 C 25.65 3.401 25.531 3.562 25.269 3.631 C 24.864 3.737 24.863 3.755 24.863 14.204 L 24.863 24.67 L 25.543 24.67 C 26.139 24.67 26.223 24.73 26.223 25.156 C 26.223 25.581 26.139 25.641 25.543 25.641 C 25.169 25.641 24.863 25.717 24.863 25.811 C 24.863 26.029 26.293 26.26 26.693 26.106 C 26.924 26.017 27 26.113 27 26.495 L 27 27 L 13.5 27 C 0.13 27 0 26.996 0 26.611 Z M 18.113 26.088 C 18.407 26.03 18.648 25.906 18.648 25.812 C 18.648 25.717 16.349 25.64 13.5 25.64 C 10.454 25.64 8.353 25.714 8.353 25.821 C 8.353 25.921 8.549 26.041 8.79 26.089 C 9.414 26.214 17.474 26.213 18.113 26.088 Z M 3.826 15.046 C 3.847 9.062 3.792 4.048 3.702 3.904 C 3.166 3.036 3.108 4.124 3.108 14.983 C 3.108 25.425 3.128 26.053 3.448 25.992 C 3.766 25.93 3.79 25.236 3.826 15.046 Z M 5.582 15.051 C 5.608 9.052 5.552 4.056 5.459 3.909 C 4.913 3.051 4.856 4.088 4.856 14.983 C 4.856 25.425 4.876 26.053 5.196 25.992 C 5.514 25.931 5.539 25.232 5.582 15.052 Z M 7.334 14.908 C 7.29 5.175 7.248 3.788 6.993 3.788 C 6.738 3.788 6.695 5.175 6.651 14.908 C 6.601 25.946 6.604 26.028 6.993 26.028 C 7.382 26.028 7.384 25.946 7.334 14.908 Z M 20.201 14.844 C 20.201 5.982 20.151 3.675 19.959 3.739 C 19.769 3.802 19.705 6.249 19.666 14.925 C 19.622 24.715 19.65 26.029 19.908 26.029 C 20.166 26.029 20.201 24.683 20.201 14.844 Z M 21.961 14.994 C 21.96 8.979 21.908 3.974 21.844 3.871 C 21.436 3.211 21.367 4.811 21.367 14.983 C 21.367 24.826 21.4 26.05 21.664 25.994 C 21.927 25.939 21.962 24.66 21.961 14.994 Z M 23.845 14.908 C 23.801 5.175 23.759 3.788 23.504 3.788 C 23.249 3.788 23.206 5.175 23.162 14.908 C 23.112 25.946 23.115 26.028 23.504 26.028 C 23.892 26.028 23.894 25.946 23.845 14.908 Z M 9.648 24.151 C 9.379 23.883 9.533 23.351 9.906 23.253 C 10.289 23.153 10.295 22.988 10.295 12.745 L 10.295 2.338 L 5.487 2.286 C 0.827 2.236 0.68 2.222 0.68 1.846 C 0.68 1.469 0.827 1.456 5.487 1.405 C 9.929 1.357 11.209 1.203 9.688 0.898 C 9.354 0.832 7.038 0.777 4.54 0.777 C 0.13 0.777 0 0.766 0 0.388 C 0 0.004 0.13 0 13.5 0 L 27 0 L 27 0.874 L 22.391 0.812 C 17.774 0.75 16.511 0.828 16.511 1.174 C 16.511 1.287 18.413 1.36 21.367 1.36 L 26.223 1.36 L 26.223 2.331 L 16.511 2.331 L 16.511 12.741 C 16.511 22.988 16.517 23.153 16.899 23.253 C 17.151 23.319 17.288 23.518 17.288 23.818 L 17.288 24.281 L 13.532 24.281 C 11.467 24.281 9.719 24.222 9.648 24.151 Z M 11.996 12.076 C 12.046 1.069 12.043 0.971 11.656 0.971 C 11.27 0.971 11.266 1.086 11.266 12.011 C 11.266 18.083 11.326 23.111 11.4 23.184 C 11.898 23.682 11.948 22.756 11.996 12.076 Z M 13.791 12.017 C 13.791 1.575 13.772 0.947 13.451 1.008 C 13.133 1.069 13.108 1.768 13.061 11.927 C 13.011 22.623 13.057 23.546 13.619 23.199 C 13.716 23.139 13.791 18.248 13.791 12.017 Z M 15.54 12.14 C 15.54 2.342 15.504 0.971 15.248 0.971 C 14.993 0.971 14.957 2.327 14.957 12.011 C 14.957 18.083 15.015 23.109 15.087 23.18 C 15.166 23.255 15.268 23.301 15.377 23.31 C 15.467 23.31 15.54 18.283 15.54 12.14 Z M 71.904 22.827 C 69.862 22.19 68.569 20.526 68.569 18.536 C 68.569 16.094 70.184 14.371 73.112 13.692 C 74.572 13.354 77.675 13.22 78.535 13.459 L 79.081 13.61 L 79.021 9.703 L 78.961 5.795 C 78.961 5.795 78.442 4.375 76.141 4.955 C 75.271 5.175 75.173 5.796 75.173 7.388 C 75.173 9.636 74.373 10.751 72.513 11.098 C 70.258 11.519 68.843 9.508 69.917 7.404 C 71.11 5.064 74.632 3.702 78.864 3.941 C 81.097 4.068 82.589 4.591 83.667 5.627 C 85.193 7.094 85.169 6.946 85.234 15.298 L 85.291 22.73 L 84.748 22.94 C 84.448 23.057 83.539 23.115 82.711 23.069 C 81.085 22.979 80.052 22.485 79.651 21.604 L 79.446 21.154 L 78.543 21.776 C 76.758 23.004 73.913 23.454 71.904 22.826 Z M 78.579 20.506 C 79.052 20.196 79.058 20.159 79.058 17.304 C 79.058 14.057 79.117 14.178 77.536 14.183 C 75.922 14.188 75.118 14.913 74.792 16.654 C 74.454 18.454 75.016 20.128 76.162 20.744 C 76.732 21.049 77.932 20.931 78.579 20.506 Z M 110.331 22.835 C 107.962 22.169 105.786 20.456 104.8 18.479 C 103.35 15.572 103.423 11.796 104.99 8.611 C 106.441 5.661 109.529 3.896 113.253 3.888 C 116.399 3.881 119.091 5.294 120.447 7.664 C 121.091 8.789 121.653 11.054 121.562 12.161 L 121.5 12.917 L 115.503 12.969 L 109.505 13.02 L 109.632 13.843 C 109.908 15.63 110.364 16.575 111.498 17.709 C 112.379 18.59 112.832 18.88 113.735 19.143 C 116.651 19.99 119.836 18.718 120.445 16.463 C 120.587 15.935 120.746 15.733 121.022 15.733 C 121.496 15.733 121.529 16.421 121.12 17.777 C 120.448 20.01 118.391 21.933 115.827 22.725 C 114.366 23.176 111.734 23.229 110.331 22.835 Z M 115.324 10.246 C 115.113 6.926 114.147 5.065 112.605 5.012 C 110.755 4.949 109.554 7.12 109.554 10.53 L 109.554 12.043 L 115.439 12.043 L 115.324 10.247 Z M 35.741 14.083 C 35.741 9.329 35.77 5.439 35.805 5.439 C 35.841 5.439 36.999 5.102 38.379 4.691 C 39.39 4.385 40.405 4.092 41.423 3.813 L 41.957 3.683 L 41.957 7.458 L 42.588 6.861 C 45.028 4.557 48.429 3.406 50.608 4.148 C 51.886 4.584 52.72 5.275 53.223 6.313 L 53.651 7.197 L 54.367 6.55 C 57.554 3.67 60.72 3.1 62.944 5.005 C 63.874 5.802 64.368 6.709 64.659 8.158 C 64.835 9.036 66.432 22.013 66.432 22.569 C 66.432 22.661 65.012 22.712 63.275 22.683 L 60.119 22.63 L 59.979 21.367 C 59.771 19.501 59.279 14.763 59.049 12.432 C 58.729 9.182 58.511 8.357 57.785 7.631 C 56.935 6.781 55.992 6.763 54.718 7.571 L 53.806 8.15 L 53.806 22.727 L 47.81 22.727 L 47.748 15.782 C 47.691 9.408 47.656 8.789 47.323 8.239 C 46.483 6.852 44.702 6.634 42.968 7.707 L 42.053 8.272 L 42.003 15.499 L 41.951 22.727 L 35.74 22.727 L 35.74 14.083 Z M 93.47 22.48 C 93.357 22.344 92.87 21.186 92.388 19.906 C 91.739 18.19 91.084 16.475 90.425 14.763 C 89.777 13.081 89.133 11.397 88.491 9.713 C 88.016 8.462 87.537 7.212 87.054 5.963 C 86.629 4.867 86.532 4.42 86.704 4.354 C 86.834 4.304 88.279 4.287 89.913 4.317 L 92.883 4.371 L 95.33 11.034 C 97.154 16.003 97.821 17.617 97.955 17.378 C 98.107 17.108 100.434 10.561 102.113 5.682 C 102.565 4.367 102.635 4.273 103.163 4.273 C 103.772 4.273 103.831 4.4 103.539 5.09 C 103.435 5.335 102.306 8.508 101.03 12.14 C 97.803 21.325 97.481 22.208 97.266 22.484 C 97.002 22.822 93.751 22.818 93.47 22.48 Z M 124.253 22.597 C 124.182 22.526 124.124 18.691 124.124 14.074 C 124.124 7.588 124.179 5.638 124.366 5.494 C 124.5 5.391 125.789 4.976 127.231 4.571 C 128.674 4.166 129.963 3.793 130.097 3.741 C 130.281 3.671 130.339 4.11 130.339 5.551 L 130.339 7.454 L 130.874 6.966 C 134.766 3.406 138.711 2.935 140.528 5.812 C 141.121 6.752 141.506 8.565 141.892 12.238 C 142.066 13.893 142.332 16.253 142.482 17.482 C 142.632 18.711 142.814 20.393 142.887 21.222 L 143.019 22.727 L 136.794 22.727 L 136.676 21.901 C 136.611 21.447 136.295 18.453 135.974 15.248 C 135.31 8.62 135.171 7.917 134.41 7.375 C 133.491 6.721 132.362 6.93 130.874 8.031 L 130.339 8.426 L 130.339 22.726 L 127.361 22.726 C 125.723 22.726 124.324 22.668 124.253 22.597 Z" fill="currentColor"></path></svg>