<svg xmlns="http://www.w3.org/2000/svg" xmlns:xlink="http://www.w3.org/1999/xlink" viewBox="0 0 125.943 32" overflow="visible"><path d="M 90.436 31.977 C 86.023 31.303 82.844 29.611 80.292 26.574 C 78.216 24.103 77.035 21.301 76.608 17.836 L 76.428 16.365 L 76.016 16.987 C 75.145 18.296 73.786 19.415 72.052 20.246 L 71.13 20.688 L 71.584 21.361 C 72.496 22.713 77.734 30.369 78.203 31.034 L 78.686 31.719 L 74.669 31.69 L 70.651 31.661 L 67.345 26.738 L 64.039 21.814 L 58.813 21.814 L 58.785 26.766 L 58.756 31.717 L 51.865 31.717 L 51.865 25.7 L 44.78 25.671 L 37.696 25.644 L 37.696 19.188 L 43.743 19.159 L 49.789 19.131 L 49.76 16.15 L 49.732 13.17 L 43.713 13.115 L 37.696 13.06 L 37.666 9.969 L 37.637 6.878 L 51.862 6.878 L 51.892 3.841 L 51.92 0.805 L 59.798 0.805 C 68.234 0.805 68.684 0.829 70.564 1.37 C 73.509 2.217 75.635 3.931 76.76 6.367 C 77.129 7.165 77.579 8.724 77.579 9.204 C 77.579 9.727 77.731 9.597 78.191 8.682 C 79.054 6.963 80.387 5.208 81.66 4.118 C 85.093 1.176 89.246 -0.18 94.211 0.019 C 96.667 0.118 98.434 0.559 100.502 1.591 C 101.402 2.039 103.23 3.187 103.347 3.376 C 103.386 3.44 100.084 8.449 99.784 8.78 C 99.735 8.834 99.39 8.684 99.005 8.443 C 96.462 6.846 94.505 6.249 92.187 6.364 C 90.687 6.439 89.834 6.653 88.576 7.27 C 86.873 8.103 85.565 9.426 84.684 11.2 C 83.86 12.86 83.674 13.7 83.673 15.741 C 83.673 17.211 83.709 17.576 83.95 18.478 C 84.747 21.464 86.576 23.776 89.042 24.912 C 90.395 25.537 91.431 25.734 93.004 25.667 C 95.153 25.578 96.843 25.024 98.433 23.89 C 99.55 23.093 99.472 23.31 99.438 21.12 L 99.408 19.188 L 95.771 19.159 L 92.132 19.129 L 92.132 13.115 L 104.494 13.115 L 104.523 6.96 L 104.551 0.805 L 115.246 0.777 L 125.942 0.75 L 125.942 6.878 L 111.277 6.878 L 111.307 9.969 L 111.336 13.06 L 117.546 13.089 L 123.755 13.117 L 123.755 19.131 L 117.546 19.16 L 111.336 19.188 L 111.307 22.375 L 111.277 25.561 L 111.62 25.63 C 111.81 25.667 115.11 25.699 118.955 25.699 L 125.943 25.699 L 125.943 31.717 L 104.497 31.717 L 104.497 27.102 L 103.654 27.878 C 101.544 29.823 99.168 30.992 95.963 31.661 C 94.868 31.89 94.212 31.955 92.68 31.986 C 91.627 32.008 90.617 32.003 90.437 31.976 Z M 67.433 15.595 C 68.931 15.166 70.026 14.287 70.483 13.143 C 70.693 12.621 70.736 12.309 70.738 11.31 C 70.739 10.236 70.709 10.039 70.452 9.491 C 69.887 8.286 68.844 7.492 67.392 7.16 C 66.558 6.97 66.436 6.966 62.123 6.978 L 58.759 6.988 L 58.759 15.871 L 62.779 15.824 C 66.082 15.785 66.914 15.744 67.432 15.596 Z M 0 16.232 L 0 0.748 L 3.685 0.777 L 7.37 0.805 L 10.798 7.042 C 12.685 10.473 14.485 13.758 14.801 14.345 C 15.117 14.932 15.42 15.396 15.476 15.378 C 15.532 15.359 16.996 12.763 18.728 9.607 C 20.46 6.451 22.261 3.179 22.728 2.337 L 23.581 0.805 L 30.912 0.805 L 30.939 16.261 L 30.967 31.716 L 24.183 31.716 L 24.156 22.943 L 24.127 14.172 L 21.228 18.571 C 16.044 26.437 15.472 27.285 15.369 27.275 C 15.311 27.27 13.344 24.353 10.997 20.794 L 6.729 14.324 L 6.702 23.021 L 6.673 31.716 L 0 31.716 Z" fill="currentColor"></path></svg>