<svg xmlns="http://www.w3.org/2000/svg" viewBox="0 0 772.2 110" fill="currentColor"><g id="Layer_1"><g><path d="M17.5,30.5C17.5,18.4,11.4,8.4,0,0h26.5c9.3,7.2,15,18.2,15,30.5c0,12.3-5.7,23.3-15,30.5C35.1,64.6,40,73.4,40,86v24H16
			V86c0-12-5.7-20.4-16-25C11.4,52.6,17.5,42.6,17.5,30.5 M69.5,30.5C69.5,18.4,63.4,8.4,52,0h26.5c9.3,7.2,15,18.2,15,30.5
			c0,12.3-5.7,23.3-15,30.5C87.1,64.6,92,73.4,92,86v24H68V86c0-12-5.7-20.4-16-25C63.4,52.6,69.5,42.6,69.5,30.5 M121.5,30.5
			c0-12.1-6.1-22.1-17.5-30.5h26.5c9.3,7.2,15,18.2,15,30.5c0,12.3-5.7,23.3-15,30.5c8.6,3.6,13.5,12.4,13.5,25v24h-24V86
			c0-12-5.7-20.4-16-25C115.4,52.6,121.5,42.6,121.5,30.5"></path><path d="M218.6,90h-18.2V20h44.7c21.5,0,32.1,8,32.1,21.1c0,8.9-5.2,15.6-14.9,19c10,1.5,14.5,6.8,14.5,16.3V90h-18.4V77.2
			c0-8-4-11.2-14.5-11.2h-25.3V90z M244.1,30.2h-25.5v25.6h25.3c9.2,0,14.9-5.1,14.9-13.1C258.8,34.8,253.5,30.2,244.1,30.2"></path><rect x="290.6" y="20" width="18.2" height="70"></rect><path d="M364.6,67.2h-22.2V90h-18.2V20H365c21.5,0,32.8,9,32.8,23.4C397.8,58.3,386.3,67.2,364.6,67.2 M364.2,30.2h-21.8V57H364
			c9.4,0,15.2-4.8,15.2-13.5C379.2,35,373.4,30.2,364.2,30.2"></path><path d="M449,67.2h-22.2V90h-18.2V20h40.8c21.5,0,32.8,9,32.8,23.4C482.2,58.3,470.7,67.2,449,67.2 M448.6,30.2h-21.8V57h21.6
			c9.4,0,15.2-4.8,15.2-13.5C463.6,35,457.8,30.2,448.6,30.2"></path><polygon points="511.2,20 511.2,79.6 556.6,79.6 556.6,90 493,90 493,20 		"></polygon><rect x="568" y="20" width="18.2" height="70"></rect><polygon points="613.6,43.4 613.6,90 601.6,90 601.6,20 615.2,20 664.8,66.6 664.8,20 676.8,20 676.8,90 663.2,90 		"></polygon><path d="M736.2,28.2c-17.3,0-28.6,11-28.6,27.4c0,16.2,10.8,26.2,27.6,26.2h1.2c5.7,0,12.1-1.2,18-3.1V59.8H725v-10h47.2v32.9
			c-9.8,5.1-24.6,9.1-36.6,9.1H734c-27.6,0-45.4-14.6-45.4-35.8c0-21,18.3-37.8,46.4-37.8h1.6c11.7,0,25.1,3.7,35,9.5l-5.2,8.5
			c-8.9-4.9-19.5-8-29-8H736.2z"></path></g></g></svg>
